<svg xmlns="http://www.w3.org/2000/svg" xmlns:svg="http://www.w3.org/2000/svg" id="svg6431" width="28.019" height="27.026" version="1.1" viewBox="0 0 28.019 27.026"><defs id="defs6433"><linearGradient id="linearGradient4975" x1="34.893" x2="45.919" y1="36.423" y2="48.548" gradientTransform="translate(-18.018,-13.571)" gradientUnits="userSpaceOnUse"><stop id="stop1324" offset="0" stop-color="#729fcf"/><stop id="stop1326" offset="1" stop-color="#5187d6"/></linearGradient><linearGradient id="linearGradient7922" x1="16.875" x2="27.901" y1="22.852" y2="34.977" gradientUnits="userSpaceOnUse"><stop id="stop7918" offset="0" stop-color="#fff"/><stop id="stop7920" offset="1" stop-color="#fff" stop-opacity=".34"/></linearGradient></defs><g id="layer1" transform="translate(-9.9744029,-11.019216)"><path id="text1314" fill="#75a1d0" stroke="#3465a4" stroke-width="1" d="m 27.514,37.543 v -9.027 l 9.979,-0.04 V 21.48 h -9.97 l -0.009,-9.96 -7.016,0.011 0.005,9.931 -9.99,0.074 -0.036,6.969 10.034,-0.029 0.007,9.04 z"/><path id="path7076" fill="url(#linearGradient4975)" stroke="url(#linearGradient7922)" stroke-width="1" d="M 26.499,36.534 V 27.5 H 36.501 L 36.495,22.475 H 26.508 V 12.48 l -4.995,0.018 0.009,9.977 -10.026,0.018 -0.027,4.973 10.064,0.009 -0.013,9.028 z" opacity=".409"/><path id="path7914" fill="#fff" fill-rule="evenodd" d="m 11,25 c 0,1.938 25.984,-0.969 25.984,-0.031 v -3 L 27,22 V 12.035 H 21 V 22 H 11 Z" opacity=".312"/></g><metadata id="metadata18"/></svg>