<svg xmlns="http://www.w3.org/2000/svg" xmlns:svg="http://www.w3.org/2000/svg" id="svg6431" width="25.41" height="25.487" version="1.1" viewBox="0 0 25.41 25.487"><defs id="defs6433"><linearGradient id="linearGradient2474" x1="16.875" x2="27.901" y1="22.852" y2="34.977" gradientTransform="matrix(0.70711,-0.70711,0.70711,0.70711,-11.705,23.999)" gradientUnits="userSpaceOnUse"><stop id="stop7918" offset="0" stop-color="#fff"/><stop id="stop7920" offset="1" stop-color="#fff" stop-opacity=".34"/></linearGradient></defs><g id="layer1" transform="translate(-11.641112,-9.7135183)"><g id="g2464" transform="translate(1.4048,-2.2554)"><path id="text1314" fill="#f91918" fill-opacity="1" stroke="#b60000" stroke-opacity="1" stroke-width="1" d="m 34.297,31.09 -6.383,-6.383 7.027,-7.085 -4.946,-4.946 -7.05,7.049 -7.049,-7.036 -4.953,4.969 7.025,7.019 -7.011,7.116 4.902,4.953 7.075,-7.116 6.397,6.388 z"/><path id="path7076" fill="none" fill-opacity="1" stroke="url(#linearGradient2474)" stroke-width="1" d="m 32.866,31.094 -6.389,-6.388 7.073,-7.073 -3.557,-3.548 -7.062,7.062 -7.068,-7.067 -3.519,3.544 7.061,7.049 -7.077,7.102 3.498,3.535 7.123,-7.11 6.374,6.393 z" opacity=".409"/><path id="path7914" fill="#fff" fill-rule="evenodd" d="m 23.133,24.348 c 1.292,-0.382 2.999,-0.29 4.38,0.087 3.049,-2.911 5.058,-4.946 6.767,-6.839 l -4.299,-4.215 -7.038,7.082 -7.047,-7.047 -4.242,4.243 7.046,7.047 c 1.311,0.354 2.732,0.145 4.433,-0.358 z" opacity=".312"/></g></g><metadata id="metadata19"/></svg>